<?xml version="1.0" standalone="no"?>
<!DOCTYPE svg PUBLIC "-//W3C//DTD SVG 20010904//EN"
 "http://www.w3.org/TR/2001/REC-SVG-20010904/DTD/svg10.dtd">
<svg version="1.0" xmlns="http://www.w3.org/2000/svg"
 width="512.000000pt" height="512.000000pt" viewBox="0 0 512.000000 512.000000"
 preserveAspectRatio="xMidYMid meet">

<g transform="translate(0.000000,512.000000) scale(0.100000,-0.100000)"
fill="#000000" stroke="none">
<path d="M3413 3739 c-85 -76 -183 -173 -183 -182 0 -10 332 -362 341 -362 4
0 59 50 123 110 155 148 156 132 -22 322 -124 133 -142 148 -175 151 -31 3
-44 -3 -84 -39z"/>
<path d="M1471 3749 c-117 -23 -233 -105 -295 -208 -67 -112 -66 -88 -66
-1088 0 -570 4 -920 10 -954 30 -157 139 -282 299 -342 55 -21 67 -22 941 -25
511 -2 916 1 960 6 41 6 101 20 133 32 116 44 219 156 257 278 19 61 20 95 20
636 l0 573 -23 44 c-74 140 -274 138 -350 -4 -22 -42 -22 -44 -25 -595 l-3
-553 -25 -9 c-15 -6 -363 -10 -887 -10 -765 0 -865 2 -885 16 l-22 15 0 889
c0 700 3 891 13 897 6 4 269 10 584 13 l571 5 43 30 c117 83 117 247 0 330
l-43 30 -581 2 c-320 0 -602 -3 -626 -8z"/>
<path d="M2740 3110 c-228 -215 -416 -394 -418 -398 -1 -5 75 -90 169 -191
l172 -182 51 49 c28 27 213 201 411 386 198 185 364 343 369 350 7 10 -34 60
-159 192 -92 99 -171 180 -174 181 -3 2 -193 -173 -421 -387z"/>
<path d="M2183 2414 c-39 -131 -70 -240 -69 -241 1 -2 109 22 240 52 130 30
239 55 243 55 3 0 -53 62 -125 138 -71 75 -149 159 -174 186 l-44 49 -71 -239z"/>
</g>
</svg>
